<svg width="25" height="24" viewBox="0 0 25 24" fill="none" xmlns="http://www.w3.org/2000/svg">
<g clip-path="url(#clip0_44_473)">
<path d="M12.1832 0C5.45467 0 0 5.37264 0 12C0 17.6275 3.93371 22.3498 9.24023 23.6467V15.6672H6.72805V12H9.24023V10.4198C9.24023 6.33552 11.1169 4.4424 15.1881 4.4424C15.96 4.4424 17.2919 4.59168 17.8367 4.74048V8.06448C17.5492 8.03472 17.0497 8.01984 16.4293 8.01984C14.4317 8.01984 13.6598 8.76528 13.6598 10.703V12H17.6393L16.9556 15.6672H13.6598V23.9122C19.6924 23.1946 24.3669 18.1354 24.3669 12C24.3664 5.37264 18.9117 0 12.1832 0Z" fill="black"/>
</g>
<defs>
<clipPath id="clip0_44_473">
<rect width="24.3664" height="24" fill="white"/>
</clipPath>
</defs>
</svg>
