<svg width="25" height="24" viewBox="0 0 25 24" fill="none" xmlns="http://www.w3.org/2000/svg">
<g clip-path="url(#clip0_44_474)">
<path d="M12.1832 2.16094C15.4384 2.16094 15.8239 2.175 17.1041 2.23125C18.2938 2.28281 18.9363 2.47969 19.3646 2.64375C19.931 2.85938 20.3402 3.12188 20.7638 3.53906C21.1921 3.96094 21.4539 4.35938 21.6728 4.91719C21.8393 5.33906 22.0392 5.97656 22.0916 7.14375C22.1487 8.40937 22.163 8.78906 22.163 11.9906C22.163 15.1969 22.1487 15.5766 22.0916 16.8375C22.0392 18.0094 21.8393 18.6422 21.6728 19.0641C21.4539 19.6219 21.1874 20.025 20.7638 20.4422C20.3355 20.8641 19.931 21.1219 19.3646 21.3375C18.9363 21.5016 18.2891 21.6984 17.1041 21.75C15.8191 21.8062 15.4336 21.8203 12.1832 21.8203C8.92801 21.8203 8.54252 21.8062 7.26233 21.75C6.07257 21.6984 5.43009 21.5016 5.00178 21.3375C4.43545 21.1219 4.02617 20.8594 3.60261 20.4422C3.1743 20.0203 2.91255 19.6219 2.69363 19.0641C2.52706 18.6422 2.32718 18.0047 2.27483 16.8375C2.21772 15.5719 2.20345 15.1922 2.20345 11.9906C2.20345 8.78438 2.21772 8.40469 2.27483 7.14375C2.32718 5.97187 2.52706 5.33906 2.69363 4.91719C2.91255 4.35938 3.17906 3.95625 3.60261 3.53906C4.03093 3.11719 4.43545 2.85938 5.00178 2.64375C5.43009 2.47969 6.07733 2.28281 7.26233 2.23125C8.54252 2.175 8.92801 2.16094 12.1832 2.16094ZM12.1832 0C8.87566 0 8.46162 0.0140625 7.16239 0.0703125C5.86793 0.126563 4.97798 0.332812 4.20701 0.628125C3.40273 0.9375 2.72219 1.34531 2.0464 2.01562C1.36585 2.68125 0.951813 3.35156 0.637715 4.13906C0.337894 4.90313 0.128495 5.775 0.071386 7.05C0.0142772 8.33437 0 8.74219 0 12C0 15.2578 0.0142772 15.6656 0.071386 16.9453C0.128495 18.2203 0.337894 19.0969 0.637715 19.8563C0.951813 20.6484 1.36585 21.3188 2.0464 21.9844C2.72219 22.65 3.40273 23.0625 4.20225 23.3672C4.97798 23.6625 5.86317 23.8687 7.15763 23.925C8.45686 23.9812 8.8709 23.9953 12.1784 23.9953C15.486 23.9953 15.9 23.9812 17.1993 23.925C18.4937 23.8687 19.3837 23.6625 20.1546 23.3672C20.9542 23.0625 21.6347 22.65 22.3105 21.9844C22.9863 21.3188 23.4051 20.6484 23.7144 19.8609C24.0142 19.0969 24.2236 18.225 24.2808 16.95C24.3379 15.6703 24.3521 15.2625 24.3521 12.0047C24.3521 8.74688 24.3379 8.33906 24.2808 7.05938C24.2236 5.78438 24.0142 4.90781 23.7144 4.14844C23.4146 3.35156 23.0006 2.68125 22.32 2.01562C21.6442 1.35 20.9637 0.9375 20.1642 0.632812C19.3884 0.3375 18.5032 0.13125 17.2088 0.075C15.9048 0.0140625 15.4908 0 12.1832 0Z" fill="black"/>
<path d="M12.1832 5.83594C8.72814 5.83594 5.92505 8.59688 5.92505 12C5.92505 15.4031 8.72814 18.1641 12.1832 18.1641C15.6383 18.1641 18.4414 15.4031 18.4414 12C18.4414 8.59688 15.6383 5.83594 12.1832 5.83594ZM12.1832 15.9984C9.9417 15.9984 8.12374 14.2078 8.12374 12C8.12374 9.79219 9.9417 8.00156 12.1832 8.00156C14.4247 8.00156 16.2427 9.79219 16.2427 12C16.2427 14.2078 14.4247 15.9984 12.1832 15.9984Z" fill="black"/>
<path d="M20.1499 5.59214C20.1499 6.38902 19.4932 7.0312 18.6889 7.0312C17.8798 7.0312 17.2278 6.38433 17.2278 5.59214C17.2278 4.79526 17.8846 4.15308 18.6889 4.15308C19.4932 4.15308 20.1499 4.79995 20.1499 5.59214Z" fill="black"/>
</g>
<defs>
<clipPath id="clip0_44_474">
<rect width="24.3664" height="24" fill="white"/>
</clipPath>
</defs>
</svg>
