<svg width="75" height="40" viewBox="0 0 75 40" fill="none" xmlns="http://www.w3.org/2000/svg">
<path d="M3.825 7.275H21.275V28.925H18.05V10.3H6.925V28.95H3.825V7.275ZM5.95 15.675H19.4V18.65H5.95V15.675ZM5.925 24.3H19.4V27.325H5.925V24.3ZM26.45 10.625H48.575V13.675H26.45V10.625ZM31.6 21.975H43.2V25.025H31.6V21.975ZM35.875 5.775H39.075V29.25H35.875V5.775ZM34.975 11.725L37.725 12.6C35.575 18.05 32.025 22.825 27.65 25.575C27.15 24.825 26.15 23.675 25.475 23.075C29.575 20.825 33.2 16.325 34.975 11.725ZM39.975 11.8C41.8 16.25 45.45 20.6 49.65 22.775C48.9 23.4 47.825 24.65 47.325 25.5C42.925 22.8 39.425 18.025 37.25 12.7L39.975 11.8ZM61.75 19.85H72.725V29.15H69.8V22.525H64.55V29.25H61.75V19.85ZM61.25 10.825H72.175V17.325H69.3V13.375H61.25V10.825ZM64.3 7.55L67.225 7.775C66.8 10.925 66.125 14.925 65.625 17.325H62.7C63.275 14.8 63.925 10.7 64.3 7.55ZM60.85 6.5H73.45V9.05H60.85V6.5ZM59.925 15.9H74.325V18.525H59.925V15.9ZM62.875 25.625H71.5V28.3H62.875V25.625ZM51.95 13.625H59.175V15.875H51.95V13.625ZM52.1 6.55H59.2V8.825H52.1V6.55ZM51.95 17.125H59.175V19.375H51.95V17.125ZM50.725 10.025H60.075V12.375H50.725V10.025ZM53.325 20.65H59.35V28.25H53.325V25.9H56.775V23.025H53.325V20.65ZM51.875 20.65H54.4V29.25H51.875V20.65Z" fill="black"/>
</svg>
