<svg width="25" height="24" viewBox="0 0 25 24" fill="none" xmlns="http://www.w3.org/2000/svg">
<path d="M22.5627 0H1.79893C0.804282 0 0 0.773438 0 1.72969V22.2656C0 23.2219 0.804282 24 1.79893 24H22.5627C23.5574 24 24.3664 23.2219 24.3664 22.2703V1.72969C24.3664 0.773438 23.5574 0 22.5627 0ZM7.22902 20.4516H3.61213V8.99531H7.22902V20.4516ZM5.42058 7.43438C4.25936 7.43438 3.32183 6.51094 3.32183 5.37187C3.32183 4.23281 4.25936 3.30937 5.42058 3.30937C6.57703 3.30937 7.51456 4.23281 7.51456 5.37187C7.51456 6.50625 6.57703 7.43438 5.42058 7.43438ZM20.7638 20.4516H17.1517V14.8828C17.1517 13.5562 17.1279 11.8453 15.2718 11.8453C13.392 11.8453 13.1065 13.2937 13.1065 14.7891V20.4516H9.49909V8.99531H12.9637V10.5609H13.0113C13.4919 9.66094 14.6722 8.70938 16.4283 8.70938C20.088 8.70938 20.7638 11.0813 20.7638 14.1656V20.4516Z" fill="black"/>
</svg>
