<svg width="85" height="85" viewBox="0 0 85 85" fill="none" xmlns="http://www.w3.org/2000/svg">
<g clip-path="url(#clip0_51_723)">
<mask id="mask0_51_723" style="mask-type:luminance" maskUnits="userSpaceOnUse" x="-8" y="0" width="98" height="81">
<path d="M89.3724 0H-7.11255V80.1807H89.3724V0Z" fill="white"/>
</mask>
<g mask="url(#mask0_51_723)">
<path d="M42.1086 71.2224C61.2433 71.2224 76.755 57.1934 76.755 39.8878C76.755 22.5822 61.2433 8.55316 42.1086 8.55316C22.9739 8.55316 7.46222 22.5822 7.46222 39.8878C7.46222 57.1934 22.9739 71.2224 42.1086 71.2224Z" fill="white"/>
<path d="M41.0529 43.9104C41.1778 43.4912 41.2759 43.3007 41.2938 43.1016C41.5347 39.7351 41.5392 39.7098 38.0366 39.1171C32.1867 38.1219 26.3369 37.1055 20.4692 36.2207C18.5862 35.9369 18.2069 35.2296 18.613 33.5274C21.0403 23.3986 30.9685 15.9459 42.1775 15.9459C53.5961 15.9459 63.5331 23.3351 65.956 33.5274C66.3531 35.2084 65.965 35.9581 64.0908 36.2416C58.2947 37.1099 52.5161 38.0965 46.7378 39.0661C42.7798 39.731 42.7842 39.7522 43.5115 43.7621C46.9341 44.6091 52.4536 41.9118 52.6008 48.7969C53.721 48.0346 54.6267 47.3742 55.5814 46.7812C58.0177 45.261 60.3559 46.2733 60.4454 48.9918C60.5614 52.5147 60.5614 56.0506 60.441 59.5738C60.3514 62.1695 58.0311 63.2154 55.7245 61.8094C54.7382 61.2082 53.8058 60.5263 52.7971 59.8488C51.8067 64.2359 49.8388 65.4596 45.1804 64.583C44.6628 64.4856 44.2613 63.8505 43.7925 63.4777C43.2705 63.0587 42.7709 62.4066 42.1953 62.3303C41.7893 62.2752 41.2982 63.0587 40.7852 63.3888C40.0802 63.8463 39.3396 64.5618 38.5898 64.5872C35.0246 64.7102 31.4549 64.6763 27.8852 64.6254C24.9804 64.583 23.673 63.3296 23.6462 60.5731C23.6061 56.4784 23.615 52.3878 23.6418 48.2931C23.6596 45.1003 24.8822 43.9399 28.2021 43.9272C32.4366 43.9104 36.6711 43.9272 41.0439 43.9272L41.0529 43.9104ZM41.3295 45.748C36.5953 45.748 32.218 45.748 27.8406 45.748C26.3815 45.748 25.6631 46.3875 25.672 47.8147C25.6988 52.0489 25.7033 56.2835 25.6676 60.5136C25.6542 62.017 26.3057 62.7284 27.9165 62.7113C31.1872 62.6774 34.4579 62.7157 37.7287 62.6562C38.2329 62.648 38.8575 62.3854 39.2099 62.0423C41.5927 59.6966 42.7619 59.8361 45.5105 62.0509C46.3541 62.7325 48.1208 62.5971 49.415 62.4445C49.8522 62.3939 50.3698 61.149 50.4278 60.4165C50.5795 58.5913 50.4278 56.7493 50.5393 54.92C50.5661 54.4966 51.1285 54.0985 51.4453 53.6919C51.7799 54.0096 52.4447 54.3864 52.3956 54.6405C51.829 57.5749 54.3144 58.4644 56.1439 59.7599C56.6302 60.1073 57.3084 60.2174 57.8973 60.4333C58.0805 59.8659 58.4151 59.2985 58.4285 58.7311C58.4821 55.699 58.4687 52.6631 58.433 49.631C58.4285 49.0551 58.2188 48.4836 58.0222 47.4928C56.5901 48.4583 55.5547 49.2247 54.4438 49.8769C53.3548 50.512 52.1814 51.0243 51.0482 51.5917C50.8561 50.4525 50.5795 49.3178 50.4991 48.1703C50.4188 47.0482 50.3698 45.9091 48.893 45.8116C47.0768 45.693 45.2428 45.7819 43.2616 45.7819C43.2616 48.0346 43.3241 50.0038 43.217 51.9644C43.1902 52.4343 42.6013 52.8789 42.2712 53.3321C41.9589 52.8577 41.4053 52.4005 41.3786 51.9135C41.2759 49.9573 41.3339 47.9925 41.3339 45.7439L41.3295 45.748ZM47.6033 34.3192C47.7327 34.4379 47.8621 34.5607 47.9915 34.6793C52.3242 32.3079 56.6525 29.9324 60.9853 27.5611C58.6917 23.767 54.3902 20.4556 50.7356 19.6342C49.0001 24.1693 47.2598 28.7129 45.515 33.2607C47.9067 31.0969 49.937 28.7637 52.0654 26.5194C52.4625 26.1002 53.2611 26.0197 53.8727 25.7826C53.7433 26.4347 53.837 27.252 53.4533 27.7093C51.5747 29.9663 49.5667 32.1258 47.6033 34.3192ZM40.8476 32.3757C40.9458 32.363 41.0484 32.3503 41.1466 32.3333V17.644C39.2323 17.9869 37.4744 18.3003 35.569 18.6433C37.4075 23.4282 39.1296 27.8998 40.8476 32.3757ZM43.3732 17.6228V32.3333C43.4847 32.3587 43.6007 32.3841 43.7122 32.4095C45.4481 27.8956 47.1839 23.3774 49.009 18.6263C47.1036 18.2876 45.3901 17.9827 43.3687 17.627L43.3732 17.6228ZM38.7281 33.4174C38.8441 33.3581 38.9601 33.2945 39.0761 33.2353C37.3004 28.6451 35.5288 24.0549 33.6592 19.2192C31.8833 20.227 30.3394 21.1035 28.6706 22.052C32.1644 26.0028 35.4441 29.708 38.7281 33.4174ZM20.3398 34.2389C25.6676 35.1322 30.6473 35.9666 35.627 36.8049C35.685 36.6735 35.7386 36.5425 35.7966 36.4112C31.4192 34.0144 27.0419 31.6219 22.4013 29.0812C21.7141 30.8047 21.0939 32.346 20.3353 34.2389H20.3398ZM23.3339 27.4298C27.9789 29.9663 32.3473 32.346 36.7113 34.7259C36.8095 34.6031 36.9075 34.4759 37.0059 34.3531C33.7574 30.6988 30.509 27.0445 27.1088 23.2165C25.7746 24.707 24.6814 25.9266 23.3383 27.4256L23.3339 27.4298ZM62.2077 29.0558C57.4779 31.6516 53.1273 34.0398 48.7815 36.4239C48.8439 36.5508 48.9064 36.6821 48.9688 36.8093C53.9619 35.9666 58.955 35.1281 64.1979 34.243C63.5019 32.4223 62.904 30.864 62.2122 29.0558H62.2077Z" fill="url(#paint0_linear_51_723)"/>
<g filter="url(#filter0_d_51_723)">
<path d="M42.7075 72.7413C61.5573 72.7413 76.8381 58.24 76.8381 40.352C76.8381 22.4636 61.5573 7.9624 42.7075 7.9624C23.8575 7.9624 8.57666 22.4636 8.57666 40.352C8.57666 58.24 23.8575 72.7413 42.7075 72.7413Z" stroke="#AC0016" stroke-width="3" stroke-miterlimit="10"/>
</g>
<path d="M31.6671 14.6033C31.6367 14.6227 31.5927 14.6334 31.5347 14.6355C31.4764 14.6377 31.4149 14.6355 31.3497 14.6291C31.2849 14.6227 31.2221 14.6162 31.1617 14.6097C31.1034 14.6033 31.057 14.6022 31.0222 14.6065C30.9711 14.6044 30.8931 14.6076 30.7887 14.6162C30.6864 14.6227 30.5701 14.6334 30.4402 14.6485C30.3099 14.6635 30.1751 14.6818 30.0359 14.7033C29.8964 14.7226 29.7662 14.7442 29.6454 14.7678C29.5246 14.7915 29.4211 14.8162 29.3352 14.842C29.2492 14.8657 29.1945 14.8883 29.1713 14.9098C29.1621 14.9205 29.1457 14.956 29.1225 15.0162C29.1017 15.0743 29.0785 15.1506 29.0529 15.2453C29.0273 15.3378 29.0017 15.4442 28.9762 15.5647C28.9506 15.6829 28.9274 15.8066 28.9066 15.9357C28.8878 16.0647 28.8727 16.1948 28.8611 16.326C28.8495 16.4572 28.8471 16.5819 28.8542 16.7002C29.0145 16.6572 29.176 16.6207 29.3387 16.5906C29.5035 16.5583 29.685 16.5239 29.8825 16.4873C29.9732 16.4723 30.0707 16.4497 30.1751 16.4196C30.2798 16.3895 30.383 16.3604 30.4854 16.3325C30.5901 16.3024 30.6888 16.2766 30.7816 16.255C30.8747 16.2335 30.9559 16.2228 31.0258 16.2228C31.0886 16.2228 31.1406 16.2282 31.1826 16.2389C31.2245 16.2497 31.2593 16.2669 31.2873 16.2905C31.3149 16.312 31.3372 16.3411 31.3533 16.3776C31.3696 16.4121 31.3848 16.454 31.3988 16.5035C31.4009 16.5185 31.3952 16.5368 31.3812 16.5583C31.3673 16.5776 31.3488 16.5992 31.3253 16.6228C31.3045 16.6443 31.2825 16.6648 31.2593 16.6841C31.2385 16.7035 31.2221 16.7196 31.2105 16.7325C31.1849 16.7562 31.1385 16.7788 31.071 16.8003C31.0059 16.8196 30.9363 16.8368 30.8619 16.8519C30.7876 16.8669 30.7144 16.8798 30.6424 16.8906C30.5725 16.9013 30.5202 16.91 30.4854 16.9164C30.367 16.9379 30.2427 16.9605 30.1124 16.9841C29.9848 17.0056 29.8581 17.0293 29.7326 17.0551C29.6094 17.0788 29.4907 17.1024 29.3771 17.1261C29.2656 17.1497 29.1656 17.1734 29.0773 17.1971C28.989 17.2207 28.917 17.2433 28.8611 17.2648C28.8078 17.2863 28.7763 17.3068 28.7671 17.3261C28.7483 17.3648 28.7335 17.4154 28.7219 17.4777C28.7103 17.538 28.6996 17.6057 28.6903 17.681C28.6835 17.7541 28.6787 17.8315 28.6764 17.9133C28.674 17.995 28.6719 18.0756 28.6695 18.1552C28.6695 18.2348 28.6707 18.3111 28.6728 18.3843C28.6752 18.4574 28.6775 18.5208 28.6799 18.5746C28.6799 18.6477 28.6811 18.7187 28.6835 18.7875C28.688 18.8564 28.6823 18.9241 28.6659 18.9908C28.6496 19.0381 28.6207 19.0746 28.5788 19.1005C28.5392 19.1263 28.4753 19.1359 28.3872 19.1295C28.3753 19.1273 28.3489 19.1187 28.3069 19.1037C28.265 19.0908 28.221 19.0682 28.1746 19.0359C28.1303 19.0058 28.0898 18.9671 28.0526 18.9198C28.0175 18.8746 28.0003 18.8187 28.0003 18.7521C27.9979 18.4918 28.0107 18.2466 28.0386 18.0165C28.0687 17.7842 28.099 17.5541 28.1291 17.3261C28.1523 17.1433 28.179 16.953 28.2094 16.7551C28.2394 16.5572 28.2698 16.3583 28.3001 16.1583C28.3325 15.9582 28.3649 15.7604 28.3977 15.5647C28.4301 15.3668 28.4604 15.1765 28.4881 14.9936C28.4928 14.9592 28.4916 14.9248 28.4848 14.8904C28.4777 14.8538 28.4684 14.8184 28.4568 14.784C28.4452 14.7474 28.4325 14.7119 28.4185 14.6775C28.4069 14.6409 28.3977 14.6055 28.3905 14.571C28.3861 14.5388 28.3941 14.5044 28.4149 14.4678C28.436 14.4312 28.4625 14.3979 28.4952 14.3678C28.5276 14.3355 28.5624 14.3097 28.5996 14.2904C28.6368 14.2689 28.6719 14.2592 28.7043 14.2613C28.7507 14.2656 28.7926 14.271 28.8298 14.2774C28.8694 14.2839 28.9066 14.2893 28.9414 14.2936C28.9762 14.2979 29.011 14.3022 29.0458 14.3065C29.0809 14.3086 29.118 14.3097 29.1573 14.3097C29.2248 14.3097 29.3016 14.3043 29.3875 14.2936C29.4759 14.2828 29.5663 14.2699 29.6594 14.2549C29.7546 14.2377 29.85 14.2205 29.9452 14.2032C30.0428 14.1839 30.1335 14.1667 30.2171 14.1516C30.475 14.1086 30.712 14.0731 30.9282 14.0452C31.1442 14.0151 31.3429 14 31.524 14C31.552 14 31.5856 14.0065 31.6251 14.0194C31.6671 14.0323 31.7078 14.0484 31.7471 14.0677C31.7866 14.0871 31.8206 14.1097 31.8482 14.1355C31.8786 14.1592 31.8949 14.1839 31.897 14.2097C31.9018 14.2656 31.889 14.3302 31.8586 14.4033C31.831 14.4742 31.767 14.5409 31.6671 14.6033Z" fill="black"/>
<path d="M16.6866 29.2102C16.6563 29.2404 16.6122 29.2571 16.5541 29.2605C16.496 29.2638 16.4344 29.2605 16.3694 29.2504C16.3043 29.2404 16.2416 29.2303 16.1812 29.2203C16.1231 29.2102 16.0766 29.2085 16.0417 29.2152C15.9906 29.2119 15.9128 29.2169 15.8082 29.2303C15.7059 29.2404 15.5898 29.2571 15.4596 29.2806C15.3295 29.3041 15.1947 29.3326 15.0553 29.3661C14.9159 29.3963 14.7858 29.4298 14.6649 29.4667C14.5441 29.5036 14.4407 29.5421 14.3547 29.5824C14.2687 29.6193 14.2141 29.6545 14.1909 29.688C14.1816 29.7048 14.1653 29.7601 14.1421 29.854C14.1212 29.9445 14.0979 30.0635 14.0724 30.2111C14.0468 30.3552 14.0213 30.5212 13.9957 30.709C13.9701 30.8934 13.9469 31.0862 13.926 31.2874C13.9074 31.4886 13.8923 31.6914 13.8807 31.896C13.869 32.1005 13.8667 32.295 13.8737 32.4794C14.034 32.4123 14.1955 32.3553 14.3582 32.3084C14.5232 32.2581 14.7044 32.2044 14.9019 32.1474C14.9926 32.124 15.0902 32.0888 15.1947 32.0418C15.2993 31.9949 15.4027 31.9496 15.5049 31.906C15.6095 31.8591 15.7083 31.8189 15.8012 31.7853C15.8942 31.7518 15.9755 31.735 16.0452 31.735C16.108 31.735 16.1603 31.7434 16.2021 31.7601C16.2439 31.7769 16.2788 31.8037 16.3066 31.8407C16.3345 31.8742 16.3566 31.9194 16.3729 31.9765C16.3891 32.0301 16.4042 32.0955 16.4182 32.1726C16.4205 32.1961 16.4147 32.2246 16.4008 32.2581C16.3868 32.2883 16.3682 32.3218 16.345 32.3587C16.3241 32.3922 16.302 32.424 16.2788 32.4542C16.2578 32.4844 16.2416 32.5095 16.23 32.5297C16.2044 32.5666 16.1579 32.6018 16.0905 32.6353C16.0255 32.6655 15.9558 32.6923 15.8814 32.7158C15.807 32.7392 15.7338 32.7594 15.6618 32.7761C15.5921 32.7929 15.5398 32.8063 15.5049 32.8164C15.3864 32.8499 15.2621 32.8851 15.132 32.922C15.0042 32.9555 14.8776 32.9924 14.7521 33.0326C14.6289 33.0695 14.5104 33.1064 14.3965 33.1433C14.285 33.1801 14.1851 33.2171 14.0968 33.2539C14.0085 33.2908 13.9364 33.326 13.8807 33.3595C13.8272 33.3931 13.7959 33.425 13.7866 33.4551C13.768 33.5155 13.7529 33.5943 13.7413 33.6915C13.7296 33.7854 13.7192 33.891 13.7099 34.0083C13.7029 34.1224 13.6982 34.2431 13.6959 34.3705C13.6936 34.4979 13.6913 34.6236 13.689 34.7477C13.689 34.8717 13.6901 34.9908 13.6924 35.1048C13.6948 35.2188 13.6971 35.3177 13.6994 35.4015C13.6994 35.5155 13.7006 35.6262 13.7029 35.7335C13.7076 35.8408 13.7018 35.9463 13.6855 36.0502C13.6692 36.124 13.6402 36.1811 13.5983 36.2214C13.5588 36.2618 13.4949 36.2768 13.4066 36.2665C13.395 36.2631 13.3683 36.2498 13.3265 36.2266C13.2846 36.2064 13.2405 36.1712 13.194 36.1206C13.1499 36.0738 13.1092 36.0133 13.072 35.9399C13.0372 35.8691 13.0197 35.7821 13.0197 35.6782C13.0174 35.2724 13.0302 34.8902 13.0581 34.5314C13.0883 34.1693 13.1185 33.8105 13.1487 33.4551C13.1719 33.1701 13.1986 32.8734 13.2289 32.5649C13.2591 32.2564 13.2893 31.9462 13.3195 31.6344C13.352 31.3226 13.3845 31.0141 13.4171 30.709C13.4496 30.4005 13.4798 30.1038 13.5077 29.8188C13.5124 29.7651 13.5112 29.7115 13.5042 29.6578C13.4972 29.6008 13.488 29.5455 13.4763 29.4918C13.4647 29.4349 13.4519 29.3795 13.438 29.3259C13.4264 29.2689 13.4171 29.2136 13.4101 29.1599C13.4055 29.1096 13.4136 29.056 13.4345 28.999C13.4554 28.9419 13.4822 28.89 13.5147 28.843C13.5472 28.7927 13.5821 28.7525 13.6193 28.7223C13.6564 28.6888 13.6913 28.6737 13.7238 28.6771C13.7703 28.6838 13.8121 28.6921 13.8493 28.7022C13.8888 28.7123 13.926 28.7206 13.9608 28.7273C13.9957 28.7341 14.0305 28.7408 14.0654 28.7475C14.1003 28.7508 14.1374 28.7525 14.1769 28.7525C14.2443 28.7525 14.321 28.7441 14.407 28.7273C14.4953 28.7106 14.5859 28.6905 14.6789 28.667C14.7741 28.6402 14.8694 28.6133 14.9647 28.5865C15.0623 28.5564 15.1529 28.5295 15.2366 28.5061C15.4945 28.439 15.7315 28.3837 15.9476 28.3401C16.1637 28.2931 16.3624 28.2697 16.5436 28.2697C16.5715 28.2697 16.6052 28.2797 16.6447 28.2999C16.6866 28.32 16.7272 28.3451 16.7667 28.3753C16.8062 28.4054 16.8399 28.4407 16.8678 28.4809C16.898 28.5178 16.9143 28.5564 16.9166 28.5966C16.9213 28.6838 16.9085 28.7844 16.8783 28.8984C16.8504 29.009 16.7865 29.113 16.6866 29.2102Z" fill="black"/>
<path d="M63.6203 20.7894C63.6203 20.8755 63.5902 20.9486 63.5296 21.0088C63.4716 21.0712 63.3948 21.1024 63.2996 21.1024C63.2577 21.1024 63.2241 21.0937 63.1985 21.0765C63.1661 21.0529 63.1301 21.0217 63.0905 20.983C63.051 20.9421 63.009 20.8916 62.965 20.8314C62.8791 20.7088 62.8 20.5808 62.728 20.4475C62.6584 20.312 62.6013 20.1926 62.5572 20.0894C62.5456 20.0593 62.5329 20.0324 62.5189 20.0087C62.5073 19.9829 62.4945 19.9571 62.4805 19.9313C62.4689 19.9033 62.4561 19.8743 62.4421 19.8442C62.4282 19.8119 62.4133 19.7732 62.3969 19.728C62.3294 19.5431 62.2806 19.4216 62.2506 19.3635C62.2179 19.3936 62.1866 19.4173 62.1563 19.4345C62.1263 19.4495 62.0935 19.4613 62.0587 19.47C62.0263 19.4764 61.9915 19.4807 61.9543 19.4829C61.9192 19.4829 61.8812 19.4829 61.8392 19.4829C61.816 19.4829 61.7869 19.4872 61.7521 19.4958C61.7173 19.5044 61.6789 19.5141 61.637 19.5248C61.5974 19.5356 61.5582 19.5474 61.5186 19.5603C61.479 19.5732 61.4419 19.584 61.4071 19.5925C61.2908 19.6227 61.1736 19.6495 61.0549 19.6732C60.9365 19.6969 60.8146 19.7205 60.689 19.7442C60.5635 19.7657 60.4321 19.7872 60.2949 19.8087C60.1581 19.8281 60.0127 19.8496 59.8595 19.8732C59.7896 19.884 59.7236 19.9259 59.6608 19.999C59.6004 20.0743 59.4749 20.2356 59.2843 20.483C59.0984 20.7281 58.9404 20.9077 58.8101 21.0217C58.6825 21.1357 58.5582 21.1927 58.4371 21.1927C58.284 21.1927 58.1561 21.1647 58.0538 21.1088C57.9378 21.04 57.8795 20.9669 57.8795 20.8894C57.8795 20.8486 57.9038 20.8195 57.9526 20.8023C58.0038 20.783 58.0725 20.7658 58.1585 20.7507C58.1864 20.7486 58.2501 20.6959 58.35 20.5926C58.4455 20.4937 58.5175 20.412 58.5662 20.3475C58.6638 20.2292 58.7625 20.1034 58.8625 19.97C58.9648 19.8345 59.0787 19.6829 59.2042 19.5151C59.2646 19.4291 59.3179 19.3549 59.3646 19.2925C59.411 19.2302 59.4493 19.1775 59.4794 19.1344C59.5121 19.0914 59.5481 19.043 59.5876 18.9893C59.6293 18.9355 59.6769 18.8753 59.7304 18.8086C59.7536 18.7785 59.7816 18.7419 59.814 18.6989C59.8467 18.6559 59.8851 18.6075 59.9291 18.5538C59.9731 18.4978 60.0127 18.4484 60.0475 18.4053C60.0847 18.3623 60.1162 18.3236 60.1418 18.2892C60.1697 18.2548 60.2045 18.2118 60.2462 18.1602C60.2905 18.1086 60.3416 18.0472 60.3996 17.9763C60.4184 17.9548 60.4544 17.9042 60.5076 17.8246C60.5635 17.7451 60.6379 17.6354 60.7307 17.4956C60.861 17.2956 60.9457 17.1493 60.9853 17.0569C61.2571 16.446 61.4615 16.1406 61.5986 16.1406C61.659 16.1406 61.7078 16.146 61.7449 16.1568C61.7821 16.1654 61.8113 16.1815 61.8321 16.2052C61.8532 16.2267 61.8672 16.2568 61.874 16.2955C61.8812 16.3321 61.8844 16.3772 61.8844 16.431C61.8844 16.4675 61.8844 16.4998 61.8844 16.5278C61.8844 16.5557 61.8833 16.5783 61.8812 16.5955C61.8788 16.6299 61.8764 16.674 61.874 16.7278C61.8717 16.7816 61.8684 16.845 61.8636 16.9181C61.9799 17.144 62.0903 17.387 62.1947 17.6472C62.2482 17.7784 62.3038 17.9225 62.3621 18.0795C62.4225 18.2344 62.4865 18.4053 62.5537 18.5925C62.6212 18.7774 62.6804 18.9355 62.7315 19.0667C62.7827 19.1979 62.8243 19.3043 62.8571 19.3861C62.8895 19.4678 62.9278 19.5614 62.9719 19.6667C63.0186 19.7721 63.073 19.8915 63.1358 20.0248C63.159 20.0743 63.2461 20.1937 63.3972 20.3829C63.5459 20.5722 63.6203 20.7077 63.6203 20.7894ZM62.0763 18.8828C62.0343 18.7645 61.9891 18.6376 61.9404 18.5021C61.8916 18.3645 61.8404 18.2279 61.7869 18.0924C61.7357 17.9548 61.6825 17.8225 61.6266 17.6956C61.573 17.5687 61.5198 17.4558 61.4662 17.3569C61.336 17.5203 61.2128 17.6773 61.0968 17.8279C60.9805 17.9784 60.8678 18.1301 60.7586 18.2828C60.6519 18.4333 60.5448 18.5882 60.438 18.7473C60.3333 18.9065 60.2265 19.0764 60.1174 19.257C60.1429 19.2656 60.1662 19.2699 60.187 19.2699C60.2218 19.2699 60.2661 19.2678 60.3196 19.2635C60.3752 19.257 60.4309 19.2506 60.4868 19.2441C60.5448 19.2355 60.5995 19.2269 60.6507 19.2183C60.7039 19.2097 60.747 19.2022 60.7795 19.1957C60.8354 19.1828 60.883 19.1721 60.9225 19.1635C60.9642 19.1549 61.0037 19.1463 61.0409 19.1377C61.0781 19.1291 61.1176 19.1205 61.1596 19.1119C61.2036 19.1011 61.256 19.0893 61.3163 19.0764C61.4511 19.0441 61.5846 19.0118 61.7173 18.9796C61.8496 18.9452 61.9692 18.9129 62.0763 18.8828Z" fill="black"/>
<path d="M70.5133 29.9354C70.5133 30.3376 70.5005 30.686 70.4749 30.9807C70.4517 31.2753 70.4145 31.5194 70.3633 31.713C70.3517 31.7624 70.3294 31.8238 70.297 31.8969C70.267 31.9678 70.2274 32.0528 70.1786 32.1517C70.1299 32.2507 70.0832 32.3389 70.0391 32.4163C69.9948 32.4937 69.9532 32.5604 69.9136 32.6163C69.8952 32.6399 69.8696 32.6711 69.8369 32.7098C69.8045 32.7486 69.7625 32.7948 69.7114 32.8486C69.5326 33.04 69.3431 33.1808 69.1433 33.2711C68.941 33.3594 68.7054 33.4035 68.4357 33.4035C68.2405 33.4035 68.0383 33.3906 67.8292 33.3647C67.6249 33.3388 67.425 33.2917 67.2299 33.2229C67.0368 33.1541 66.8845 33.0647 66.773 32.955C66.7337 32.9185 66.7138 32.8744 66.7138 32.8228C66.7138 32.7754 66.7242 32.7324 66.7453 32.6937C66.7662 32.6529 66.7941 32.6184 66.8289 32.5905C66.8637 32.5604 66.9045 32.5378 66.9509 32.5227C66.9973 32.5077 67.0472 32.5001 67.1008 32.5001C67.1564 32.5001 67.303 32.5464 67.5401 32.6389C67.6608 32.684 67.7632 32.7227 67.8467 32.755C67.9303 32.7851 67.9966 32.8088 68.0454 32.826C68.143 32.8582 68.2394 32.8744 68.3345 32.8744C68.646 32.8744 68.8982 32.8099 69.0909 32.6808C69.2863 32.5518 69.4431 32.3518 69.5615 32.0808C69.7337 31.6936 69.8196 31.1785 69.8196 30.5355C69.8196 30.4451 69.8149 30.3 69.8057 30.1C69.7985 29.8999 69.7869 29.6418 69.7709 29.3257C69.7661 29.2138 69.7613 29.116 69.7569 29.0321C69.7521 28.9461 69.7497 28.8751 69.7497 28.8192C69.7453 28.8063 69.7509 28.7902 69.7673 28.7708C69.7836 28.7514 69.8033 28.7321 69.8265 28.7127C69.8497 28.6934 69.8729 28.6762 69.8961 28.6611C69.9196 28.6439 69.9368 28.6299 69.9484 28.6192C69.9788 28.5934 70.024 28.5804 70.0844 28.5804C70.1519 28.5804 70.2111 28.5966 70.2622 28.6288C70.3134 28.659 70.347 28.6998 70.3633 28.7514C70.3657 28.7558 70.3702 28.7869 70.3773 28.845C70.3842 28.9031 70.3958 28.988 70.4121 29.0999C70.4446 29.3214 70.4689 29.5063 70.4853 29.6547C70.5037 29.8032 70.5133 29.8967 70.5133 29.9354Z" fill="black"/>
</g>
</g>
<defs>
<filter id="filter0_d_51_723" x="3.07666" y="6.4624" width="79.2614" height="75.7789" filterUnits="userSpaceOnUse" color-interpolation-filters="sRGB">
<feFlood flood-opacity="0" result="BackgroundImageFix"/>
<feColorMatrix in="SourceAlpha" type="matrix" values="0 0 0 0 0 0 0 0 0 0 0 0 0 0 0 0 0 0 127 0" result="hardAlpha"/>
<feOffset dy="4"/>
<feGaussianBlur stdDeviation="2"/>
<feComposite in2="hardAlpha" operator="out"/>
<feColorMatrix type="matrix" values="0 0 0 0 0 0 0 0 0 0 0 0 0 0 0 0 0 0 0.25 0"/>
<feBlend mode="normal" in2="BackgroundImageFix" result="effect1_dropShadow_51_723"/>
<feBlend mode="normal" in="SourceGraphic" in2="effect1_dropShadow_51_723" result="shape"/>
</filter>
<linearGradient id="paint0_linear_51_723" x1="43.1748" y1="15.9459" x2="41.5657" y2="64.8542" gradientUnits="userSpaceOnUse">
<stop offset="0.470525" stop-color="#5FBAFE"/>
<stop offset="0.66463" stop-color="#01AB27"/>
</linearGradient>
<clipPath id="clip0_51_723">
<rect width="85" height="85" fill="white"/>
</clipPath>
</defs>
</svg>
