<svg width="25" height="24" viewBox="0 0 25 24" fill="none" xmlns="http://www.w3.org/2000/svg">
<g clip-path="url(#clip0_44_475)">
<path d="M24.1237 7.20005C24.1237 7.20005 23.8857 5.54536 23.1529 4.8188C22.2248 3.86255 21.1874 3.85786 20.7115 3.80161C17.304 3.55786 12.188 3.55786 12.188 3.55786H12.1784C12.1784 3.55786 7.06245 3.55786 3.65496 3.80161C3.17906 3.85786 2.14158 3.86255 1.21356 4.8188C0.480666 5.54536 0.247471 7.20005 0.247471 7.20005C0.247471 7.20005 0 9.14536 0 11.086V12.9047C0 14.8454 0.242712 16.7907 0.242712 16.7907C0.242712 16.7907 0.480666 18.4454 1.2088 19.1719C2.13682 20.1282 3.35514 20.0954 3.89767 20.1985C5.84889 20.3813 12.1832 20.4375 12.1832 20.4375C12.1832 20.4375 17.304 20.4282 20.7115 20.1891C21.1874 20.1329 22.2248 20.1282 23.1529 19.1719C23.8857 18.4454 24.1237 16.7907 24.1237 16.7907C24.1237 16.7907 24.3664 14.85 24.3664 12.9047V11.086C24.3664 9.14536 24.1237 7.20005 24.1237 7.20005ZM9.66566 15.1125V8.36724L16.2474 11.7516L9.66566 15.1125Z" fill="black"/>
</g>
<defs>
<clipPath id="clip0_44_475">
<rect width="24.3664" height="24" fill="white"/>
</clipPath>
</defs>
</svg>
